<?xml version="1.0" encoding="UTF-8" standalone="no"?>
<!DOCTYPE svg PUBLIC "-//W3C//DTD SVG 1.1//EN" "http://www.w3.org/Graphics/SVG/1.1/DTD/svg11.dtd">
<svg width="100%" height="100%" viewBox="0 0 1938 2048" version="1.1" xmlns="http://www.w3.org/2000/svg" xmlns:xlink="http://www.w3.org/1999/xlink" xml:space="preserve" xmlns:serif="http://www.serif.com/" style="fill-rule:evenodd;clip-rule:evenodd;stroke-linejoin:round;stroke-miterlimit:2;">
    <g transform="matrix(1,0,0,1,-55.381106,0)">
        <g id="Favigon-Logo" serif:id="Favigon Logo" transform="matrix(2.268246,0,0,2.268246,-1333.232971,-1246.25331)">
            <g id="Favigon-Logo1" serif:id="Favigon Logo">
                <path id="Favigon-Logo2" serif:id="Favigon Logo" d="M769.2,755.1C769.4,686.4 801.5,630 844.3,602.6C899.7,567.2 976.4,574.5 1038.8,621.7C1066.7,642.9 1086.9,660.5 1113.7,679.3L1114.8,678.1C1134.1,656 1153.1,637.5 1180.9,612.7C1214.5,582.8 1251.1,559.8 1274.8,554.3C1330.9,541.2 1371.2,556.3 1404.5,580.7C1458.3,620.2 1477.8,686.2 1459.6,746.7C1439.8,812.8 1382.4,847.2 1334.6,856.3C1265.4,869.5 1182.3,841.1 1137.6,819C1137,818.7 1136.5,818.4 1135.9,818.1L1134.3,820.3C1117.2,843.6 1097.8,872.5 1078.7,918.4C1096,907 1112.7,897.4 1125.8,893.5C1216.7,866.4 1304.4,918.1 1305,1014.8C1305.2,1056.1 1290.7,1085.7 1270.3,1106.4C1240.4,1136.6 1197.6,1145.9 1153.3,1138.4C1108.6,1130.8 1069.2,1108.2 1043.1,1075L1040.6,1071.8L998.2,1123.1C982.4,1140.9 968.7,1154.3 956.7,1164.8L958.5,1188.4C962,1232 964.9,1292.4 955.4,1338.2C945.8,1384.7 917.7,1413 890.2,1430.7C826.3,1471.8 740,1449.1 697.9,1407C661,1370.1 638.6,1302.6 672.1,1235.3C690.5,1198.2 724.4,1164 793.7,1134.6C806.4,1129.2 819.4,1125.4 834.1,1119.9C802.9,1119.2 778,1114.4 751.6,1107.2C671.6,1085.3 595.6,989.7 615.4,895.2C627.8,835.9 690.5,760 769.2,755.1ZM1020.4,646C969.1,607.2 906.3,599.2 860.8,628.3C824.6,651.4 798.9,700.2 799.8,758.6C800,773.9 804.4,818.3 808.3,837.7C812.8,860.3 832.4,947.3 848.4,1015.1L895.1,1013.8C875.4,943.4 846.5,821.4 847.3,769.8C848.5,699.1 861,685 886.6,668.7C916.6,649.5 957.5,657.5 991.9,682.5C1039.5,717.3 1119.4,776 1151.1,791.6C1191.5,811.6 1266.4,838.2 1328.9,826.3C1367.6,819 1414.3,791.5 1430.4,737.9C1444.9,689.6 1429.4,636.8 1386.5,605.3C1359.6,585.6 1327,573.4 1281.7,584C1261.3,588.7 1230.3,609.6 1201.2,635.5C1174.6,659.2 1156.3,677 1137.7,698.2L1178.7,723.1C1196,703.1 1209,689.9 1232.7,668.8C1254.3,649.6 1274.2,635 1289.3,631.5C1318,624.8 1341.7,629.9 1358.6,642.6C1383.3,661.1 1393.4,694.7 1384.5,724.1C1371.5,767.3 1334,781 1294.7,781.8C1249.8,782.8 1202.4,766.5 1174.5,751.7C1096,710.2 1070.1,683.7 1020.4,646ZM816.3,1011.9C803.2,956.2 788.5,890.9 781.5,858.5L778.9,858.8C750.9,861.4 726.8,885.6 720.2,917.2C711.9,956.7 746.4,994.8 779.9,1003.9C792.3,1007.4 804.3,1010 816.3,1011.9ZM878.4,775.5L880.3,818.4C937.1,818.2 963.8,827.9 1001,837.2L1021.1,798.6C962.8,782.1 940.7,774.8 878.4,775.5ZM878.8,745C944.3,744.4 967.8,751.8 1029.4,769.3L1039.4,772.1C1041.9,768 1047.1,760 1047.1,760C1020.9,741.5 994.5,722.2 973.9,707.2C950.6,690.2 923.4,681.3 903,694.4C887.7,704.2 881.2,713.8 878.8,745ZM1109.7,802.3L1072.5,776.9C1056.8,801 1039.1,830.2 1024,861.3C993.5,924.2 980.2,964.9 973.9,989.4L1033,954.6C1058.4,876.3 1086.2,834.3 1109.7,802.3ZM925.1,1007.9C929.6,1006.6 934.1,1005.2 938.6,1003.7L944.3,981.7C950.4,958.5 962.2,921.3 988.2,865.5C957.5,857.6 933.3,849.6 887.3,849C897.1,901.5 912.6,963.2 924.4,1005.6L925.1,1007.9ZM1209.5,734.3C1233.4,743.8 1264.4,751.9 1294.1,751.3C1320.2,750.7 1346.7,744.1 1355.3,715.3C1360.5,697.9 1354.9,678 1340.3,667C1329.6,659 1314.4,657 1296.3,661.2C1284.4,664 1269.8,676.6 1253,691.6C1234.2,708.3 1222.5,719.9 1209.5,734.3ZM1126.6,1011.3C1126.6,1011.3 1144.8,1032.6 1170.3,1037C1179.4,1038.5 1199.9,1036.7 1199.3,1014.7C1198.7,994.2 1177.3,989.4 1158,995.2C1152.7,996.8 1134.1,1006.4 1126.6,1011.3ZM776,828.4L772.1,785.5C706.9,789 655.5,852.4 645.2,901.5C628.7,980.3 693,1059.5 759.6,1077.8C794.3,1087.2 826.1,1092.1 876.1,1087.9C914.8,1084.6 981.9,1074.9 1047.1,1030.7C1078.5,1009.4 1119.7,975.2 1147.6,966.9C1187.2,955.1 1228.2,973.2 1228.5,1015.3C1228.6,1031.9 1224.1,1044.3 1215.8,1052.6C1203.1,1065.5 1183,1069.8 1164,1066.6C1142.7,1063 1115.8,1047.3 1103.4,1031.1L1071.7,1054.2C1093.2,1081.5 1121.6,1102 1158.4,1108.3C1192.5,1114.1 1225.6,1108.1 1248.6,1085C1264.1,1069.2 1274.7,1046.4 1274.5,1015C1274,940.1 1204.9,901.8 1134.5,922.8C1103,932.2 1050.1,977.5 1021,995.9C999.4,1009.6 975.9,1022.5 957.7,1029.3C939.5,1036.1 920.9,1041.1 903.1,1043.3C887.7,1045.2 872,1046.8 851.9,1046C824,1044.9 799,1040.8 771.8,1033.4C725.1,1020.6 678.7,966.1 690.3,910.9C699.8,865.6 735.8,832.1 776,828.4ZM975.3,1102.9L904,1118.6C861,1146.4 832.8,1151.1 805.7,1162.6C745.6,1188.2 715.4,1216.8 699.4,1248.9C672.8,1302.4 690.2,1356.1 719.5,1385.4C753.3,1419.2 822.5,1438 873.7,1405C895.5,1391 917.9,1368.8 925.6,1332C934.5,1288.9 931.3,1231.8 928.1,1190.8L884.7,1212C887.4,1256.4 888.4,1278.7 881.5,1319.2C877.4,1342.7 861.6,1355.9 847.8,1364.7C816.4,1384.9 774.1,1372.2 753.4,1351.5C735.9,1334.1 725.5,1296.7 741.3,1264.9C753.5,1240.3 780.9,1222 826.2,1202.6C847.7,1193.4 865.3,1188.4 881,1179.1C903.4,1166 929.7,1154.4 975.3,1102.9ZM854.8,1223.9C849.5,1226 844,1228.2 838.2,1230.7C801.8,1246.2 778.4,1258.8 768.6,1278.5C759.2,1297.3 764.6,1319.6 774.9,1329.9C787.3,1342.4 812.5,1351.1 831.3,1339C839.1,1334 849.1,1327.3 851.4,1314C857.4,1279.4 856.9,1259 854.8,1223.9Z"/>
            </g>
        </g>
    </g>
</svg>
