<?xml version="1.0" encoding="UTF-8" standalone="no"?>
<!DOCTYPE svg PUBLIC "-//W3C//DTD SVG 1.1//EN" "http://www.w3.org/Graphics/SVG/1.1/DTD/svg11.dtd">
<svg width="100%" height="100%" viewBox="0 0 2048 598" version="1.1" xmlns="http://www.w3.org/2000/svg" xmlns:xlink="http://www.w3.org/1999/xlink" xml:space="preserve" xmlns:serif="http://www.serif.com/" style="fill-rule:evenodd;clip-rule:evenodd;stroke-linejoin:round;stroke-miterlimit:2;">
    <g transform="matrix(1,0,0,1,-0.213809,-725.416558)">
        <g id="Favigon-Logo" serif:id="Favigon Logo" transform="matrix(3.651929,0,0,3.651929,-783.467211,-789.22793)">
            <path d="M254.5,518.8L247.5,540.3L247.5,540.3C246.5,543.2 246.1,545.3 246.1,546.5C246.1,548.2 246.9,549.5 248.4,550.2C249.9,551 253,551.6 257.5,551.8L264.6,552.1L264,553.9L214.6,553.9L215.2,552.2L221.1,551.7L221.1,551.7C224.3,551.5 226.7,550.9 228.5,550C230.2,549.2 231.4,547.9 232.4,546.4C233.3,544.8 234.2,542.5 235.2,539.4L241.9,518.8L254.5,518.8ZM241.9,518.8L230.4,518.8L230.4,507.4L245.6,507.4L241.9,518.8ZM245.6,507.4L270.9,429.2L270.9,429.2C272.1,425.8 272.7,423.3 272.7,421.9C272.7,420.3 271.7,419.1 270.1,418.4C268.2,417.6 265.2,417 261.2,416.8L254.6,416.5L255.3,414.8L345.3,414.8L332,455.9L330.1,455.9L330.2,455.7C330.2,455.7 331.4,444.1 331.9,440.7C332.4,437.3 332.6,434.3 332.6,431.8C332.6,428.1 332,425.1 330.8,423C329.7,420.9 327.7,419.2 325,418.3C322.3,417.3 318.5,416.8 313.6,416.8L303.5,416.8C296.8,416.8 291.5,417.1 287.4,417.5L267.9,477.6L282.4,477.6C287.3,477.6 291.3,477 294.3,475.4C297.3,473.9 299.8,471.6 301.8,468.7C303.9,465.6 308.9,456.7 308.9,456.7L309,456.6L310.8,456.6L296.5,500.6L294.6,500.6L294.7,500.4C294.7,500.4 295.2,493.2 295.2,490.5C295.2,486.9 294.2,484.2 292.1,482.4C290,480.7 286.5,479.7 281.5,479.7L267.2,479.7L258.2,507.4L245.6,507.4ZM258.2,507.4L315.1,507.4C314,511.2 313.2,515 312.7,518.8L254.5,518.8L258.2,507.4ZM315.1,507.4C316.1,503.8 317.3,500.1 318.8,496.4C323.4,484.9 329.3,475.5 336.8,467.8L336.8,467.8C344.4,460.1 352.4,456.3 360.8,456.3C367.3,456.3 371.9,458.1 374.8,461.7L374.8,461.7C377.3,465 378.8,468.9 378.9,473.2L383.4,459.6L395.9,459.6L379.8,507.4L367,507.4C368.5,503.6 369.9,499.8 371.2,495.7L375.2,483.4C375.9,480.3 376.3,477.7 376.3,475.2C376.3,471.1 375.2,467.7 373.2,464.7C371.1,461.7 367.9,460.3 363.5,460.3C359.5,460.3 355.7,461.7 352.2,464.5L352.2,464.5C346.9,468.6 341.9,474.9 337.5,483.3C333.5,490.9 330.2,498.9 327.6,507.4L315.1,507.4ZM379.8,507.4L398.3,507.4C396.8,511.1 395.2,514.9 393.6,518.8L376,518.8L379.8,507.4ZM398.3,507.4C400,503.4 401.5,499.7 402.7,496.7C407.8,483.3 412.7,473.2 417.5,466.5C422.3,459.7 427.7,456.3 433.6,456.3C437,456.3 439.7,457.4 441.9,459.5C444.1,461.6 445.3,464.8 445.3,469C445.3,472.1 444.7,475.6 443.7,479.5L443.7,479.5C442.5,483.4 441.1,487.7 439.3,492.6L435.1,503.9C434.6,505.1 434.2,506.2 433.8,507.4L420.9,507.4C421.7,505.1 422.6,502.7 423.6,500.3L430.2,483.1L430.2,483.1C431.3,480.3 432.2,477.1 433.1,473.6C434.1,470.2 434.5,467.3 434.5,465.2C434.5,463.7 434.2,462.5 433.4,461.7C432.7,461 431.7,460.6 430.5,460.6C428.8,460.6 427,461.4 425.1,462.8C423.2,464.4 421.1,466.7 419,469.8C414.7,476.2 410.1,485.5 405.4,497.7L405.4,497.7C404.5,500.1 403.1,503.6 401.6,507.4L398.3,507.4ZM433.8,507.4L471.1,507.4C470.9,507.8 470.8,508.2 470.6,508.6C469.2,512.1 467.8,515.5 466.2,518.8L429.8,518.8C431,515.2 432.3,511.4 433.8,507.4ZM471.1,507.4C475.2,496.3 477.3,486.3 477.3,477.3C477.3,474.4 477.1,471.8 476.5,469.5C476,470.4 475.3,471.1 474.5,471.8C473.2,472.8 471.5,473.4 469.7,473.4C467.3,473.4 465.4,472.6 463.8,471C462.3,469.5 461.5,467.5 461.5,465C461.5,462.6 462.3,460.5 463.9,458.8C465.5,457.1 467.5,456.3 470,456.3C473.7,456.3 476.6,458.1 478.5,461.8L478.5,461.8C480.2,465.4 481.2,470 481.2,475.8C481.2,480.7 479.3,489.3 478.1,494.9C482.5,485.5 488.7,472.7 492.4,467.4C497.6,459.9 503.1,456.3 508.9,456.3C512.1,456.3 514.8,457.3 517,459.3C519.2,461.3 520.5,464.3 520.5,468.3C520.5,471.5 519.8,475.1 518.7,479C517.5,482.8 515.8,487.4 513.7,492.9L508.1,507.4L495.2,507.4L504.3,484L505.2,481.9C506.9,477.4 508.1,473.9 508.9,471.4C509.7,469 510.2,466.9 510.2,465C510.2,463.5 509.9,462.4 509.2,461.7C508.6,460.9 507.6,460.6 506.3,460.6C502.4,460.6 498.3,464 494,470.5L494,470.5C490.6,475.5 480,496.6 474.6,507.4L471.1,507.4ZM508.1,507.4L518.5,507.4L518.5,518.8L503.6,518.8L508.1,507.4ZM503.6,518.8L500.6,526.5L500.6,526.5C498.7,531.1 497.3,534.9 496.3,537.9C495.3,540.9 494.8,543.4 494.8,545.5C494.8,547 495.1,548.2 495.8,548.9C496.4,549.7 497.4,550 498.7,550C501.5,550 504.5,548.1 507.7,544.3C512.9,538.4 518.6,528 524.9,513.2L525.2,512.6L528,513.4L527.7,514.1C522.6,526.3 517.5,536 512.5,543.2C507.4,550.7 501.9,554.2 496.2,554.2C493,554.2 490.2,553.3 487.9,551.3C485.6,549.4 484.4,546.3 484.4,542.2C484.4,539 485,535.5 486.2,531.8C487.2,528.4 488.8,524.1 490.8,518.8L503.6,518.8ZM490.8,518.8L469.1,518.8C470.6,515.8 471.5,513.8 471.5,513.8C471.5,513.8 472.7,511.2 474.6,507.4L495.2,507.4L491.3,517.6C491.1,518 490.9,518.4 490.8,518.8ZM469.1,518.8C466.1,524.8 460.7,535 455.7,540.9C448.2,549.9 440.7,554.2 433.3,554.2C427.9,554.2 423.5,552.7 420,549.7C416.5,546.6 414.7,541.5 414.7,534.3C414.7,529.7 415.4,524.5 417.2,518.9L417.2,518.8L429.8,518.8C429.2,520.6 428.6,522.3 428.1,524C426.4,530 425.5,535 425.5,539.1C425.5,542.9 426.3,545.7 427.9,547.5C429.5,549.3 431.9,550.2 435.1,550.2C441,550.2 447.2,546.2 453.8,538.2C458.5,532.5 462.6,526.1 466.2,518.8L469.1,518.8ZM417.2,518.8L397,518.8C398.6,514.9 400.2,511 401.6,507.4L420.9,507.4C419.5,511.4 418.2,515.2 417.2,518.8ZM397,518.8C393.8,526.3 390.8,533.4 389.3,536.3C386.3,542.1 383.1,546.6 380.1,549.5C376.8,552.7 373.4,554.2 370,554.2C366.7,554.2 364,553.3 362,551.4C360,549.5 358.9,546.3 358.9,541.6C358.9,537.8 359.6,533.6 361,528.9C361.5,527 362.1,525.1 362.7,523.2C358.6,531.3 354.4,537.9 349.9,543.1C343.5,550.6 337.2,554.2 330.8,554.2C325.1,554.2 320.5,552.3 317,548.3C313.7,544.4 312,538.1 312,529.4C312,525.9 312.2,522.3 312.7,518.8L324.8,518.8C323.5,525.2 322.8,531.1 322.8,536.4C322.8,541.9 324,545.8 326.5,548C328.2,549.4 330.4,550.1 333.1,550.1C337.4,550.1 341.8,547.7 346.4,542.9C351.1,538 355.6,531.4 359.9,523.1L359.9,523.1C360.7,521.7 361.4,520.2 362.1,518.8L376,518.8L374.3,523.9C370.8,534.4 369,541.3 369,544.7C369,546.8 369.4,548.3 370.3,549.2C370.8,549.7 371.6,549.9 372.5,549.9C374.1,549.9 375.7,549.2 377.4,547.8C379.2,546.3 381,544.1 383,541.1C385.2,537.7 389.4,528.5 393.6,518.8L397,518.8ZM324.8,518.8C325.3,516.1 326,513.4 326.7,510.5C327,509.5 327.3,508.4 327.6,507.4L367,507.4C365.5,511.3 363.8,515.1 362.1,518.8L324.8,518.8ZM516.9,430.2C518.6,428.5 520.6,427.6 523.1,427.6C525.6,427.6 527.6,428.5 529.2,430.2C530.9,431.9 531.8,434.1 531.8,436.5C531.8,439.1 530.9,441.2 529.3,442.9C527.6,444.7 525.6,445.6 523.1,445.6C520.6,445.6 518.6,444.7 516.9,442.9C515.2,441.2 514.4,439.1 514.4,436.5C514.4,434.1 515.2,431.9 516.9,430.2ZM572.1,578.3C551.8,578.3 538.4,568.8 536.1,554.2L536.2,554.2L547.4,554.2L547.5,554.2C549.4,562.4 558.6,568.1 572.1,568.1C589.2,568.1 599.7,558.8 599.7,543.7L599.7,528.6L598.7,528.6C593.4,540.9 582.6,548 569.1,548C546.3,548 531.8,529.2 531.8,502.3L531.8,502.2C531.8,475.4 546.4,456.3 569.2,456.3C582.8,456.3 593.8,464.3 598.8,476.8L599.6,476.8L599.6,459.4L610.5,459.4L610.5,544.5C610.5,564.9 595.3,578.3 572.1,578.3ZM571.2,537.8C588.9,537.8 599.9,523.4 599.9,502.5L599.9,502.3C599.9,481.4 588.7,466.5 571.2,466.5C553.5,466.5 542.9,481.2 542.9,502.2L542.9,502.3C542.9,523.3 553.5,537.8 571.2,537.8ZM657.1,554.2C632.1,554.2 616.4,535.5 616.4,505.3L616.4,505.1C616.4,474.9 632.1,456.3 657.1,456.3C682.1,456.3 697.8,474.9 697.8,505.1L697.8,505.3C697.8,535.5 682.1,554.2 657.1,554.2ZM657.1,543.9C675.5,543.9 686.5,529.2 686.5,505.3L686.5,505.1C686.5,481.2 675.5,466.7 657.1,466.7C638.6,466.7 627.7,481.2 627.7,505.1L627.7,505.3C627.7,529.2 638.6,543.9 657.1,543.9ZM703.6,554.2L703.6,459.4L714.6,459.4L714.6,474.8L715.6,474.8C720.4,463.2 730,456.3 744,456.3C763.9,456.3 775.3,469.2 775.3,491.6L775.3,554.2L764.4,554.2L764.4,494.6C764.4,476.2 756.6,466.8 741.1,466.8C725.3,466.8 714.6,478.8 714.6,497L714.6,554.2L703.6,554.2Z" style="fill:white;"/>
        </g>
    </g>
</svg>
