<?xml version="1.0" encoding="UTF-8" standalone="no"?>
<!DOCTYPE svg PUBLIC "-//W3C//DTD SVG 1.1//EN" "http://www.w3.org/Graphics/SVG/1.1/DTD/svg11.dtd">
<svg width="100%" height="100%" viewBox="0 0 2048 2048" version="1.1" xmlns="http://www.w3.org/2000/svg" xmlns:xlink="http://www.w3.org/1999/xlink" xml:space="preserve" xmlns:serif="http://www.serif.com/" style="fill-rule:evenodd;clip-rule:evenodd;stroke-linejoin:round;stroke-miterlimit:2;">
    <g transform="matrix(1.061835,0,0,1.061835,-44.946358,-70.157517)">
        <path d="M1971.065,548.256L1971.065,1512.624C1971.065,1778.748 1755.005,1994.808 1488.881,1994.808L524.513,1994.808C258.388,1994.808 42.329,1778.748 42.329,1512.624L42.329,548.256C42.329,282.131 258.388,66.072 524.513,66.072L1488.881,66.072C1755.005,66.072 1971.065,282.131 1971.065,548.256Z" style="fill:white;"/>
    </g>
    <g id="Favigon-Logo" serif:id="Favigon Logo" transform="matrix(1.504291,0,0,1.504291,-539.306603,-481.622072)">
        <g id="Favigon-Logo1" serif:id="Favigon Logo">
            <path id="Favigon-Logo2" serif:id="Favigon Logo" d="M769.236,755.05C769.433,686.437 801.531,629.954 844.341,602.583C899.688,567.197 976.353,574.458 1038.776,621.707C1066.739,642.873 1086.914,660.459 1113.69,679.328L1114.793,678.071C1134.116,656.027 1153.131,637.45 1180.904,612.716C1214.539,582.76 1251.146,559.766 1274.78,554.252C1330.856,541.169 1371.22,556.313 1404.495,580.71C1458.306,620.163 1477.819,686.153 1459.644,746.669C1439.769,812.847 1382.353,847.237 1334.586,856.322C1265.408,869.479 1182.253,841.095 1137.564,818.98C1137.019,818.71 1136.46,818.427 1135.887,818.133L1134.286,820.322C1117.244,843.622 1097.774,872.508 1078.732,918.425C1096.025,907.033 1112.69,897.447 1125.761,893.548C1216.691,866.42 1304.409,918.061 1304.993,1014.843C1305.242,1056.058 1290.708,1085.747 1270.255,1106.424C1240.408,1136.599 1197.637,1145.946 1153.308,1138.397C1108.56,1130.776 1069.178,1108.186 1043.083,1075.021L1040.581,1071.84L998.175,1123.078C982.392,1140.926 968.748,1154.346 956.698,1164.81L958.546,1188.427C961.954,1231.962 964.924,1292.42 955.447,1338.162C945.796,1384.749 917.681,1413.028 890.243,1430.669C826.33,1471.759 739.994,1449.081 697.892,1406.979C661.016,1370.104 638.576,1302.617 672.062,1235.346C690.548,1198.209 724.4,1164.044 793.712,1134.566C806.399,1129.17 819.356,1125.43 834.103,1119.882C802.873,1119.23 777.973,1114.421 751.562,1107.183C671.644,1085.284 595.581,989.704 615.372,895.213C627.8,835.872 690.465,760.02 769.236,755.05ZM1020.359,646.038C969.058,607.207 906.264,599.211 860.779,628.293C824.597,651.426 798.881,700.228 799.773,758.612C800.008,773.941 804.396,818.32 808.273,837.698C812.794,860.298 832.384,947.302 848.438,1015.135L895.052,1013.78C875.406,943.399 846.46,821.355 847.312,769.787C848.479,699.085 861.009,685.018 886.59,668.663C916.626,649.46 957.534,657.499 991.871,682.52C1039.546,717.261 1119.419,775.952 1151.099,791.63C1191.467,811.607 1266.394,838.229 1328.884,826.344C1367.557,818.989 1414.327,791.471 1430.419,737.892C1444.934,689.56 1429.429,636.829 1386.451,605.319C1359.584,585.621 1326.991,573.405 1281.714,583.969C1261.284,588.736 1230.273,609.61 1201.199,635.504C1174.551,659.236 1156.28,677.035 1137.74,698.186L1178.659,723.07C1196.048,703.122 1209.038,689.881 1232.722,668.787C1254.297,649.572 1274.165,635.032 1289.325,631.495C1318.039,624.795 1341.671,629.915 1358.577,642.585C1383.316,661.126 1393.37,694.664 1384.527,724.109C1371.546,767.332 1334.017,780.951 1294.747,781.796C1249.817,782.763 1202.35,766.455 1174.532,751.741C1095.956,710.18 1070.111,683.697 1020.359,646.038ZM816.32,1011.896C803.219,956.209 788.454,890.932 781.466,858.513L778.892,858.755C750.876,861.381 726.755,885.628 720.151,917.159C711.878,956.662 746.443,994.781 779.854,1003.936C792.339,1007.358 804.294,1009.992 816.32,1011.896ZM878.379,775.532L880.303,818.417C937.126,818.25 963.807,827.947 1000.974,837.195L1021.109,798.617C962.791,782.111 940.714,774.846 878.379,775.532ZM878.848,745.01C944.329,744.352 967.836,751.825 1029.419,769.255L1039.367,772.071C1041.923,768.032 1044.446,764.105 1046.919,760.302L1047.106,760.016C1020.937,741.483 994.482,722.18 973.9,707.182C950.612,690.212 923.399,681.349 903.027,694.373C887.694,704.177 881.203,713.759 878.848,745.01ZM1109.655,802.307L1072.5,776.94C1056.849,801.003 1039.092,830.226 1024,861.319C993.481,924.193 980.236,964.937 973.881,989.417L1032.968,954.601C1058.439,876.258 1086.239,834.323 1109.655,802.307ZM925.08,1007.856C929.598,1006.631 934.126,1005.247 938.638,1003.728L944.344,981.749C950.37,958.537 962.238,921.279 988.243,865.451C957.541,857.565 933.294,849.562 887.266,848.966C897.081,901.485 912.618,963.21 924.444,1005.576L925.08,1007.856ZM1209.5,734.27C1233.382,743.827 1264.356,751.928 1294.09,751.288C1320.213,750.725 1346.666,744.085 1355.301,715.332C1360.533,697.914 1354.911,677.972 1340.277,667.004C1329.574,658.983 1314.435,656.971 1296.259,661.212C1284.441,663.969 1269.835,676.597 1253.018,691.575C1234.205,708.329 1222.491,719.862 1209.5,734.27ZM1126.594,1011.261L1127.557,1012.513C1136.043,1023.548 1154.545,1034.04 1169.134,1036.525C1178.169,1038.064 1188.062,1037.291 1194.145,1031.14C1197.508,1027.74 1197.983,1022.266 1197.942,1015.489C1197.818,994.98 1175.634,990.385 1156.365,996.133C1147.546,998.765 1137.35,1004.314 1126.594,1011.261ZM776.044,828.373L772.09,785.451C706.856,788.953 655.51,852.428 645.239,901.469C628.732,980.281 692.97,1059.487 759.627,1077.753C794.258,1087.243 826.055,1092.132 876.079,1087.861C914.758,1084.558 981.897,1074.923 1047.135,1030.688C1078.48,1009.433 1119.744,975.214 1147.641,966.892C1187.224,955.083 1228.202,973.176 1228.456,1015.305C1228.556,1031.872 1224.062,1044.288 1215.841,1052.6C1203.074,1065.507 1182.972,1069.836 1164.011,1066.607C1142.66,1062.971 1115.786,1047.265 1103.367,1031.116L1071.678,1054.217C1093.164,1081.524 1121.588,1102.04 1158.431,1108.314C1192.473,1114.112 1225.639,1108.137 1248.56,1084.965C1264.135,1069.219 1274.667,1046.411 1274.478,1015.027C1274.026,940.055 1204.924,901.775 1134.484,922.79C1103.027,932.175 1050.088,977.465 1021.018,995.86C999.365,1009.561 975.869,1022.521 957.702,1029.33C939.536,1036.138 920.865,1041.111 903.13,1043.296C887.666,1045.202 871.979,1046.762 851.87,1045.964C823.994,1044.857 799.046,1040.836 771.789,1033.367C725.128,1020.58 678.729,966.074 690.284,910.903C699.773,865.598 735.788,832.146 776.044,828.373ZM975.315,1102.864L903.953,1118.598C860.97,1146.429 832.802,1151.102 805.655,1162.647C745.589,1188.193 715.4,1216.762 699.38,1248.945C672.77,1302.403 690.166,1356.098 719.469,1385.401C753.253,1419.185 822.456,1437.971 873.74,1405C895.45,1391.043 917.93,1368.833 925.566,1331.972C934.5,1288.85 931.337,1231.849 928.124,1190.809L884.684,1212.007C887.412,1256.398 888.439,1278.747 881.467,1319.179C877.416,1342.676 861.579,1355.854 847.828,1364.695C816.37,1384.919 774.074,1372.242 753.352,1351.519C735.936,1334.103 725.451,1296.681 741.266,1264.91C753.53,1240.272 780.863,1221.981 826.19,1202.613C847.662,1193.438 865.311,1188.354 881.037,1179.131C903.367,1166.035 929.748,1154.393 975.315,1102.864ZM854.834,1223.893C849.527,1225.977 843.988,1228.192 838.18,1230.674C801.836,1246.203 778.418,1258.753 768.584,1278.509C759.212,1297.337 764.608,1319.621 774.929,1329.941C787.339,1342.351 812.487,1351.138 831.325,1339.027C839.121,1334.015 849.099,1327.314 851.396,1313.994C857.362,1279.391 856.911,1258.964 854.834,1223.893Z"/>
        </g>
    </g>
</svg>
